<svg width="27" height="27" viewBox="0 0 27 27" fill="none" xmlns="http://www.w3.org/2000/svg">
<path d="M26 14C26 21.1798 20.1798 27.0002 13 27C5.8203 27.0002 0 21.1798 0 14C0 6.8203 5.8203 1 13 1C20.1797 1 26 6.8203 26 14Z" fill="white"/>
<path fill-rule="evenodd" clip-rule="evenodd" d="M0.000216995 13.9774C-0.0408311 21.1664 5.74694 26.9587 12.9714 26.9998C20.1138 27.0409 25.9426 21.2486 26.0247 14.0596C26.0657 6.87053 20.278 1.03715 13.0535 0.996067C5.87009 0.954987 0.000216995 6.74729 0.000216995 13.9774ZM12.9714 2.22847C19.498 2.22847 24.7522 7.48673 24.7522 14.0185C24.7522 20.5091 19.498 25.7674 13.0124 25.7674C6.48581 25.7674 1.23166 20.5091 1.23166 13.9774C1.23166 7.48673 6.48581 2.22847 12.9714 2.22847Z" fill="#031E6B"/>
<path fill-rule="evenodd" clip-rule="evenodd" d="M13.0808 24.7986C18.8928 24.843 23.6205 20.0024 23.7072 14.0071C23.7072 8.05629 19.0229 3.21568 13.1676 3.17127C7.39896 3.12686 2.67129 7.87865 2.58454 13.8739C2.4978 19.8247 7.18209 24.7098 13.0808 24.7986ZM13.0999 21.5981C17.1918 21.6294 20.5202 18.2214 20.5813 14.0006C20.5813 9.81095 17.2834 6.40298 13.161 6.37171C9.09966 6.34045 5.77121 9.68588 5.71014 13.9068C5.64907 18.0964 8.94698 21.5356 13.0999 21.5981Z" fill="#DB9A1E"/>
<path fill-rule="evenodd" clip-rule="evenodd" d="M13.1067 20.3659C16.5366 20.3921 19.3265 17.5355 19.3777 13.9975C19.3777 10.4857 16.6133 7.62908 13.1579 7.60287C9.75365 7.57667 6.9637 10.3809 6.9125 13.9188C6.86131 17.4306 9.62567 20.3134 13.1067 20.3659ZM13.1135 19.1818C15.9071 19.2032 18.1796 16.8765 18.2213 13.9948C18.2213 11.1344 15.9697 8.80771 13.1552 8.78636C10.3824 8.76502 8.11003 11.049 8.06833 13.9307C8.02664 16.7911 10.2782 19.1391 13.1135 19.1818Z" fill="#0F2B71"/>
<path fill-rule="evenodd" clip-rule="evenodd" d="M9.24893 10.3416L9.25549 10.3417C9.24428 10.356 9.23942 10.3617 9.23881 10.3613C9.23814 10.3608 9.2424 10.3533 9.24893 10.3416ZM9.31266 10.3419L9.31242 10.2678C9.28522 10.3033 9.267 10.327 9.25549 10.3417L9.31266 10.3419ZM9.31266 10.3419C9.31329 10.4753 9.31498 10.6126 9.31667 10.7499L9.31667 10.7499C9.31868 10.9128 9.32069 11.0757 9.32092 11.232C9.30923 11.2919 9.34224 11.3115 9.39404 11.2976C9.43744 11.2972 9.48184 11.2964 9.52708 11.2956L9.52719 11.2956H9.52719C9.71278 11.2925 9.91272 11.2891 10.1173 11.3028C10.3717 11.3199 10.5652 11.5239 10.5702 11.75C10.6289 13.2124 10.6546 14.6552 10.6803 16.098C10.7041 16.2906 10.5771 16.4383 10.3557 16.4408C10.1673 16.4629 9.94586 16.4653 9.75033 16.4609C9.67262 16.4817 9.64672 16.4886 9.64213 16.5752C9.62128 16.8081 9.58162 17.0746 9.54197 17.3411C9.53028 17.401 9.52329 17.4527 9.5163 17.5043C9.50931 17.5559 9.50232 17.6075 9.49063 17.6675C10.1549 17.66 10.7933 17.6595 11.4317 17.659C11.44 17.6901 11.437 17.7145 11.4346 17.7346C11.4328 17.7489 11.4313 17.7611 11.4342 17.7721C11.4184 18.2311 11.4356 18.7097 11.4528 19.1884C11.4411 19.2483 11.4482 19.2749 11.5331 19.2806C11.8063 19.2642 12.0795 19.2478 12.3599 19.258C12.4346 19.263 12.438 19.243 12.4457 19.1972C12.4468 19.191 12.4479 19.1843 12.4493 19.1772C12.4432 19.0509 12.4436 18.9229 12.444 18.7949V18.7949V18.7948C12.4444 18.6668 12.4448 18.5388 12.4387 18.4125C12.4326 18.2862 12.433 18.1582 12.4334 18.0302V18.0302V18.0302C12.4338 17.9022 12.4342 17.7741 12.4282 17.6479C12.6755 17.6384 12.8969 17.636 13.1184 17.6335C13.1608 17.6426 13.1629 17.6625 13.1661 17.6928C13.1673 17.7045 13.1687 17.7178 13.1727 17.7326C13.1569 18.1917 13.1741 18.6703 13.1913 19.1489C13.1796 19.2089 13.1867 19.2354 13.2715 19.2411C13.3952 19.2364 13.5271 19.2366 13.659 19.2368C13.7909 19.237 13.9229 19.2371 14.0465 19.2324C14.1841 19.25 14.1835 19.2265 14.181 19.1253L14.1806 19.1112C14.1756 18.8852 14.1688 18.6525 14.1619 18.4198C14.1551 18.1871 14.1483 17.9544 14.1432 17.7284C14.1478 17.6419 14.1925 17.6015 14.2773 17.6072C14.8167 17.5479 15.349 17.4622 15.8716 17.2369C16.2718 17.0728 16.5847 16.7899 16.7773 16.3688C16.9322 16.0146 16.9765 15.6617 16.9806 15.2626C16.9801 14.9501 16.9207 14.6249 16.7908 14.347C16.5877 14.0035 16.3023 13.7673 15.9275 13.6119C15.865 13.586 15.8043 13.5667 15.7437 13.5474L15.7436 13.5474L15.7436 13.5474C15.683 13.5281 15.6223 13.5089 15.5598 13.483C15.5902 13.4748 15.6092 13.46 15.6249 13.4477C15.6361 13.439 15.6456 13.4316 15.6563 13.4287C15.8422 13.2936 16.021 13.132 16.1338 12.9312C16.2841 12.6635 16.3167 12.3705 16.3162 12.058C16.3061 11.6059 16.1665 11.1885 15.8268 10.8531C15.5744 10.6365 15.2845 10.4868 14.9828 10.3971L14.0214 10.2283C13.9366 10.2226 13.9036 10.203 13.9082 10.1165C13.9245 9.97002 13.9148 9.83047 13.9052 9.69092C13.8976 9.35185 13.8901 9.01277 13.8754 8.64717C13.8624 8.65064 13.8542 8.64575 13.8459 8.64085V8.64085V8.64085C13.8377 8.63596 13.8294 8.63106 13.8165 8.63453C13.6845 8.63314 13.5587 8.63539 13.4358 8.63759C13.2735 8.64049 13.1162 8.6433 12.9566 8.63752C12.8977 8.62488 12.8789 8.65834 12.8932 8.71138L12.9007 9.05046C12.8895 9.423 12.8971 9.76208 12.9117 10.1277C12.9055 10.1388 12.9 10.1529 12.8945 10.167C12.8836 10.1952 12.8726 10.2234 12.8553 10.2281C12.7446 10.2293 12.6274 10.2323 12.5102 10.2353C12.3931 10.2382 12.2759 10.2412 12.1651 10.2424C12.1768 10.1825 12.1697 10.1559 12.1626 10.1294C12.1576 9.90337 12.1508 9.67069 12.1439 9.43801C12.1371 9.20532 12.1303 8.97264 12.1252 8.74659C12.1369 8.68661 12.1298 8.66009 12.045 8.65439C11.7718 8.67075 11.5244 8.68017 11.2441 8.67001C11.1593 8.66431 11.1405 8.69777 11.1359 8.78428C11.1445 9.02359 11.1513 9.25627 11.1581 9.48896C11.165 9.72164 11.1718 9.95432 11.1804 10.1936C11.1758 10.2801 11.157 10.3136 11.0722 10.3079C10.9191 10.3063 10.7677 10.3113 10.6164 10.3163C10.465 10.3214 10.3137 10.3264 10.1606 10.3248C10.0074 10.3232 9.85609 10.3282 9.70475 10.3332L9.70474 10.3332C9.57442 10.3375 9.44411 10.3418 9.31266 10.3419ZM12.3252 16.5384C12.3239 16.3553 12.3192 16.1785 12.3145 16.0045C12.3083 15.7742 12.3022 15.5491 12.3046 15.3217C12.295 15.1821 12.2936 15.0475 12.2922 14.9128C12.2908 14.7782 12.2894 14.6435 12.2798 14.504L12.2808 14.4824C12.2839 14.413 12.2848 14.3914 12.3621 14.3966L12.4103 14.3937C12.9422 14.3617 13.4967 14.3284 14.0183 14.4645C14.261 14.5416 14.5038 14.6187 14.6901 14.7962C15.0888 15.1442 15.0592 15.8627 14.6097 16.1537C14.3532 16.3361 14.0683 16.4125 13.7503 16.4693C13.373 16.5464 12.9754 16.5481 12.5944 16.5497H12.5944C12.5237 16.55 12.4535 16.5503 12.3841 16.5511C12.3841 16.5511 12.3511 16.5315 12.3252 16.5384ZM12.9248 13.3872C13.2046 13.3585 13.4756 13.3308 13.7762 13.2502C13.828 13.2364 13.9504 13.1751 14.0469 13.1209C14.5106 12.8829 14.6133 12.23 14.2335 11.8486C14.04 11.6446 13.7642 11.5479 13.5027 11.5043C13.1779 11.4546 12.8668 11.4561 12.5414 11.4576C12.4608 11.458 12.3793 11.4584 12.2965 11.458C12.2117 11.4523 12.1929 11.4857 12.1883 11.5722C12.208 12.1639 12.2207 12.729 12.2145 13.3276C12.2028 13.3876 12.2358 13.4072 12.2947 13.4198C12.3501 13.4192 12.3989 13.4203 12.4478 13.4214C12.4967 13.4225 12.5456 13.4236 12.6009 13.423C12.7116 13.409 12.8188 13.398 12.9248 13.3872Z" fill="#122C73"/>
</svg>
