<svg width="26" height="26" viewBox="0 0 26 26" fill="none" xmlns="http://www.w3.org/2000/svg">
<path opacity="0.1" d="M25.9295 13.0002C25.9295 20.1422 20.1399 25.9318 12.9981 25.9318C5.8562 25.9318 0.0666103 20.1422 0.0666103 13.0002C0.0666103 5.85841 5.8562 0.0688171 12.9981 0.0688171C20.1399 0.0688171 25.9295 5.85841 25.9295 13.0002Z" fill="#BEBEBE"/>
<path opacity="0.1" d="M22.7646 13.0002C22.7646 18.3942 18.392 22.7669 12.9981 22.7669C7.60413 22.7669 3.2315 18.3942 3.2315 13.0002C3.2315 7.60633 7.60413 3.2337 12.9981 3.2337C18.3919 3.2337 22.7646 7.60633 22.7646 13.0002Z" fill="#BEBEBE"/>
<path fill-rule="evenodd" clip-rule="evenodd" d="M17.9126 4.59245C17.2029 5.10183 16.4931 5.61122 15.7834 6.09846C14.8279 6.77502 13.8723 7.46516 12.9275 8.1476L12.9268 8.1481C12.6656 8.33676 12.4052 8.52482 12.1459 8.71184C11.9906 8.82258 11.8797 8.84473 11.7467 8.6897C11.547 8.4793 11.3419 8.27997 11.1367 8.08065C10.9316 7.88132 10.7264 7.68199 10.5268 7.47159C10.4159 7.36086 10.305 7.33871 10.1497 7.40515C9.19599 7.89239 8.44188 8.57896 7.82085 9.44271C7.77649 9.487 7.73213 9.55344 7.68777 9.61988C7.54095 9.42746 7.39792 9.24262 7.25712 9.06066L7.25709 9.06062C7.05758 8.80278 6.86254 8.55072 6.6675 8.29105C6.4629 8.02289 6.26566 7.75474 6.07155 7.49083L6.07154 7.49081C5.92898 7.29699 5.78811 7.10547 5.64723 6.91791C5.58069 6.82489 5.54609 6.74782 5.5626 6.66755C5.15408 7.14675 4.79106 7.66592 4.48024 8.21839L4.4828 8.21733C4.49199 8.21353 4.50308 8.20894 4.51607 8.20246C5.248 9.16586 5.98547 10.1293 6.72294 11.0927L6.72303 11.0928L6.72318 11.093C7.46058 12.0563 8.19798 13.0196 8.92983 13.9829C8.91795 14.0007 8.90765 14.0169 8.8981 14.032C8.87199 14.0731 8.85141 14.1055 8.81893 14.1379L8.81893 14.1379C8.37533 14.603 7.93174 15.0681 7.46597 15.5111C7.33289 15.644 7.31071 15.7547 7.39943 15.9097C7.86521 16.7956 8.50842 17.5265 9.30689 18.1244C9.3785 18.1674 9.44087 18.2103 9.5119 18.2591L9.51202 18.2592C9.55095 18.286 9.59249 18.3146 9.63958 18.3459C9.45694 18.4845 9.27911 18.6183 9.10451 18.7497L9.10372 18.7503L9.10319 18.7507L9.10317 18.7507C8.74817 19.0178 8.4065 19.2749 8.06482 19.5419C7.87631 19.6858 7.68779 19.8242 7.49928 19.9626L7.49926 19.9627L7.49924 19.9627C7.31071 20.1011 7.12219 20.2395 6.93366 20.3835C6.85517 20.4507 6.78802 20.4839 6.71788 20.4803C7.15135 20.8446 7.61693 21.1719 8.10979 21.4574C8.88873 20.8783 9.66098 20.3026 10.4305 19.7289C11.6176 18.8439 12.7982 17.9637 13.9868 17.0835C14.2057 17.2911 14.4191 17.4988 14.6299 17.7037L14.6299 17.7038C14.8463 17.9142 15.0598 18.1218 15.2732 18.3238C15.3562 18.4026 15.4187 18.4682 15.4689 18.5207L15.4689 18.5208L15.469 18.5208C15.5612 18.6175 15.6116 18.6703 15.67 18.6815C15.7402 18.6951 15.822 18.6485 16.0023 18.5458L16.0025 18.5457L16.0028 18.5455C16.0486 18.5195 16.1006 18.4898 16.1604 18.4567C16.9811 17.9916 17.6686 17.3493 18.201 16.5741C18.212 16.552 18.2287 16.5299 18.2453 16.5077L18.2453 16.5077C18.2619 16.4855 18.2786 16.4634 18.2897 16.4413C18.2843 16.4413 18.2815 16.4413 18.2814 16.4406C18.2812 16.4399 18.284 16.4386 18.2897 16.4357C18.3008 16.4302 18.3229 16.4191 18.3562 16.397C19.0558 17.3356 19.7769 18.2958 20.4983 19.2563C20.8687 18.8126 21.2006 18.3356 21.4886 17.8303C21.0384 17.2516 20.6288 16.7135 20.2193 16.1755C19.9258 15.7892 19.6323 15.4008 19.3382 15.0117C18.6544 14.107 17.9673 13.1979 17.2694 12.2997C17.1363 12.1225 17.1363 12.0118 17.2916 11.8568C17.5023 11.6464 17.7075 11.436 17.9126 11.2256C18.1178 11.0152 18.3229 10.8048 18.5337 10.5944C18.6446 10.4836 18.6889 10.3729 18.6002 10.2179C18.1122 9.28767 17.4468 8.51252 16.5818 7.89239C16.558 7.8765 16.5341 7.85775 16.5092 7.83819C16.4647 7.80326 16.4169 7.76576 16.36 7.73736C16.3967 7.70079 16.4333 7.67092 16.4662 7.64407C16.4931 7.62215 16.5175 7.60224 16.5375 7.58233C16.9589 7.26119 17.3803 6.94559 17.8017 6.62999C18.2231 6.3144 18.6446 5.9988 19.066 5.67766C19.1763 5.58588 19.2713 5.53974 19.3891 5.61492C18.9261 5.21398 18.4252 4.85583 17.8922 4.54663C17.8946 4.5673 17.9 4.57987 17.9126 4.59245ZM19.7396 5.93362C19.8996 6.08772 20.0534 6.24474 20.2012 6.4047C20.0526 6.24255 19.8987 6.08543 19.7396 5.93362Z" fill="#F2F2F2"/>
</svg>
