<svg width="32" height="32" viewBox="0 0 32 32" fill="none" xmlns="http://www.w3.org/2000/svg">
<path d="M30.7657 7.31429L19.9771 0L0 14.2171L5.07429 32L26.9257 27.5657L30.7657 7.31429Z" fill="url(#paint0_linear)"/>
<path d="M30.7657 7.31429L19.9772 0L17.3715 7.17714V21.8514H32L30.7657 7.31429Z" fill="url(#paint1_linear)"/>
<path d="M6.12567 6.1257H25.8742V25.8743H6.12567V6.1257Z" fill="black"/>
<path d="M7.95422 22.1714H15.3599V23.4057H7.95422V22.1714Z" fill="white"/>
<path d="M7.95422 8.73145H11.1085C13.6685 8.73145 15.4514 10.4686 15.4514 12.8C15.4514 15.0857 13.6685 16.8686 11.1085 16.8686H7.95422V8.73145ZM9.78279 10.3772V15.2686H11.1542C12.6171 15.2686 13.6228 14.2629 13.6228 12.8457V12.8C13.6228 11.3372 12.6171 10.3314 11.1542 10.3314H9.78279V10.3772Z" fill="white"/>
<path d="M18.4228 10.3772H15.9542V8.73145H22.6742V10.3772H20.2057V16.9143H18.4228V10.3772Z" fill="white"/>
<defs>
<linearGradient id="paint0_linear" x1="-0.608914" y1="19.9941" x2="30.6478" y2="11.9301" gradientUnits="userSpaceOnUse">
<stop offset="0.124" stop-color="#7866FF"/>
<stop offset="0.538" stop-color="#FE2EB6"/>
<stop offset="0.855" stop-color="#FD0486"/>
</linearGradient>
<linearGradient id="paint1_linear" x1="20.9897" y1="17.7874" x2="30.9294" y2="4.15954" gradientUnits="userSpaceOnUse">
<stop offset="0.124" stop-color="#FF0080"/>
<stop offset="0.259" stop-color="#FE0385"/>
<stop offset="0.411" stop-color="#FA0C92"/>
<stop offset="0.571" stop-color="#F41BA9"/>
<stop offset="0.736" stop-color="#EB2FC8"/>
<stop offset="0.866" stop-color="#E343E6"/>
</linearGradient>
</defs>
</svg>
