<svg width="488" height="508" viewBox="0 0 488 508" fill="none" xmlns="http://www.w3.org/2000/svg">
<path d="M353.285 361.152C365.539 331.743 403.043 300.445 433.993 287.964C427.61 330.12 392.66 340.224 353.285 361.152Z" stroke="url(#paint0_linear)" stroke-width="27.8031" stroke-linecap="round" stroke-linejoin="round"/>
<path d="M119.214 395.078C121.955 373.58 152.676 347.224 200.831 341.633C180.871 374.486 116.176 369.096 119.214 395.078Z" stroke="url(#paint1_linear)" stroke-width="36.7398" stroke-linecap="round" stroke-linejoin="round"/>
<path d="M284.541 385.771C285.24 398.148 247.449 434.903 231.172 452.635C242.438 434.412 246.751 420.727 249.196 397.209C251.206 377.86 266.153 365.511 284.541 385.771Z" stroke="url(#paint2_linear)" stroke-width="36.7398" stroke-linecap="round" stroke-linejoin="round"/>
<path d="M287.02 394.521C314.803 403.083 338.455 373.67 313.818 361.349C286.802 347.868 244.425 350.161 207.805 316.066C178.505 357.595 231.474 377.525 287.02 394.521Z" stroke="url(#paint3_linear)" stroke-width="83.4093" stroke-linecap="round" stroke-linejoin="round"/>
<path d="M138.651 421.177C137.802 394.574 190.222 359.676 218.744 366.681C222.442 397.624 132.716 392.511 138.651 421.177Z" stroke="url(#paint4_linear)" stroke-width="36.7398" stroke-linecap="round" stroke-linejoin="round"/>
<path d="M333.699 404.776C316.752 427.636 276.2 410.478 271.479 452.027C269.584 425.807 282.462 409.665 298.663 392.442C311.983 378.277 331.347 377.52 333.699 404.776Z" stroke="url(#paint5_linear)" stroke-width="36.7398" stroke-linecap="round" stroke-linejoin="round"/>
<g filter="url(#filter0_f)">
<path d="M301.123 416.936C355.313 429.491 365.266 360.402 336.487 345.407C290.55 314.771 252.89 354.406 234.755 337.522C220.245 358.088 327.17 381.824 301.123 416.936Z" fill="url(#paint6_radial)"/>
</g>
<path d="M241.184 156.791C241.184 156.791 274.581 135.439 311.818 144.18C316.2 163.272 288.01 205.806 288.01 205.806L241.184 156.791Z" fill="#A59FFF" stroke="white" stroke-width="27.8031" stroke-linecap="round" stroke-linejoin="round"/>
<path d="M190.305 143.594C190.305 143.594 166.953 111.593 129.092 106.164C118.07 122.354 128.884 172.228 128.884 172.228L190.305 143.594Z" fill="#A59FFF" stroke="white" stroke-width="27.8031" stroke-linecap="round" stroke-linejoin="round"/>
<path d="M215.662 295.042C231.604 295.109 244.546 290.722 244.569 285.243C244.591 279.765 231.687 275.269 215.745 275.203C199.803 275.136 186.861 279.523 186.838 285.002C186.815 290.48 199.72 294.975 215.662 295.042Z" stroke="#F67549" stroke-width="39.9843" stroke-linecap="round" stroke-linejoin="round"/>
<path d="M265.26 244.977C254.278 249.702 233.667 265.335 191.412 255.416C149.158 245.498 145.539 224.331 138.99 209.993C143.862 189.238 180.453 164.536 213.466 172.285C246.478 180.034 270.132 224.222 265.26 244.977Z" stroke="url(#paint7_linear)" stroke-width="87.555" stroke-linecap="round" stroke-linejoin="round"/>
<path d="M229.142 242.854C224.653 227.215 212.103 221.28 203.853 234.266C206.381 238.837 214.356 247.706 229.142 242.854Z" fill="#0F1B41" stroke="#0F1B41" stroke-width="8.7555" stroke-linecap="round" stroke-linejoin="round"/>
<path d="M121.323 206.785C129.11 197.77 141.975 201.361 139.137 213.455C135.376 217.396 127.889 219.178 121.323 206.785Z" fill="#0F1B41" stroke="#0F1B41" stroke-width="8.7555" stroke-linecap="round" stroke-linejoin="round"/>
<path d="M136.059 254.591C138.688 254.342 144.851 253.595 149.65 249.877C149.229 257.101 157.338 265.359 170.872 264.232" stroke="#121B42" stroke-width="3.97187" stroke-linecap="round" stroke-linejoin="round"/>
<path d="M141.749 236.956C153.211 227.539 163.268 227.84 169.414 223.601" stroke="#A59FFF" stroke-width="3.97187" stroke-linecap="round" stroke-linejoin="round"/>
<path d="M141.749 236.956C146.321 228.992 161.966 232.257 162.55 243.154C150.561 252.947 144.698 251.55 141.749 236.956Z" fill="#0F1B41" stroke="#0F1B41" stroke-width="3.97187" stroke-linecap="round" stroke-linejoin="round"/>
<path d="M173.676 326.546C253.492 345.282 333.384 295.766 352.12 215.949C370.855 136.133 321.339 56.2403 241.523 37.5049C161.706 18.7695 81.8139 68.2855 63.0785 148.102C44.3431 227.919 93.8591 307.811 173.676 326.546Z" fill="url(#paint8_radial)" stroke="white" stroke-width="5.30742" stroke-miterlimit="10"/>
<path d="M194.554 308.694C264.511 315.898 327.063 265.027 334.268 195.07C341.472 125.113 290.601 62.5617 220.644 55.3573C150.687 48.1528 88.1353 99.0238 80.9309 168.981C73.7264 238.938 124.597 301.49 194.554 308.694Z" stroke="#F9F9F9" stroke-width="5.30742" stroke-linecap="round" stroke-linejoin="round" stroke-dasharray="66.92 50.99 19.12 25.49 0.32 637.32"/>
<defs>
<filter id="filter0_f" x="190.487" y="288.14" width="199.718" height="167.864" filterUnits="userSpaceOnUse" color-interpolation-filters="sRGB">
<feFlood flood-opacity="0" result="BackgroundImageFix"/>
<feBlend mode="normal" in="SourceGraphic" in2="BackgroundImageFix" result="shape"/>
<feGaussianBlur stdDeviation="14.7524" result="effect1_foregroundBlur"/>
</filter>
<linearGradient id="paint0_linear" x1="346.005" y1="309.917" x2="441.234" y2="322.448" gradientUnits="userSpaceOnUse">
<stop stop-color="white"/>
<stop offset="1" stop-color="#A58CFF"/>
</linearGradient>
<linearGradient id="paint1_linear" x1="206.947" y1="344.049" x2="104.332" y2="394.723" gradientUnits="userSpaceOnUse">
<stop offset="0.37" stop-color="#3A2F97"/>
<stop offset="0.7" stop-color="#D4C2EE"/>
<stop offset="1" stop-color="#A58CFF"/>
</linearGradient>
<linearGradient id="paint2_linear" x1="290.266" y1="369.284" x2="210.462" y2="463.149" gradientUnits="userSpaceOnUse">
<stop offset="0.52" stop-color="#2B1978"/>
<stop offset="0.7" stop-color="#C7B8FF"/>
<stop offset="1" stop-color="#A58CFF"/>
</linearGradient>
<linearGradient id="paint3_linear" x1="281.719" y1="303.11" x2="229.14" y2="420.2" gradientUnits="userSpaceOnUse">
<stop stop-color="#639AAB"/>
<stop offset="1" stop-color="#533AB2"/>
</linearGradient>
<linearGradient id="paint4_linear" x1="224.843" y1="369.136" x2="121.905" y2="419.148" gradientUnits="userSpaceOnUse">
<stop stop-color="#5A62AF"/>
<stop offset="0.7" stop-color="white"/>
<stop offset="1" stop-color="#A58CFF"/>
</linearGradient>
<linearGradient id="paint5_linear" x1="334.705" y1="373.242" x2="259.532" y2="470.556" gradientUnits="userSpaceOnUse">
<stop stop-color="#5D76AD"/>
<stop offset="0.7" stop-color="white"/>
<stop offset="1" stop-color="#A58CFF"/>
</linearGradient>
<radialGradient id="paint6_radial" cx="0" cy="0" r="1" gradientUnits="userSpaceOnUse" gradientTransform="translate(351.38 348.048) rotate(13.2099) scale(62.5923 41.2141)">
<stop stop-color="#A4C2AC"/>
<stop offset="1" stop-color="#5D7AC2"/>
</radialGradient>
<linearGradient id="paint7_linear" x1="117.397" y1="160.026" x2="296.463" y2="277.25" gradientUnits="userSpaceOnUse">
<stop stop-color="#FFD4B1"/>
<stop offset="0.17" stop-color="white"/>
<stop offset="0.79" stop-color="white"/>
<stop offset="0.95" stop-color="#CCBDFF"/>
</linearGradient>
<radialGradient id="paint8_radial" cx="0" cy="0" r="1" gradientUnits="userSpaceOnUse" gradientTransform="translate(168 227.599) rotate(13.2099) scale(212.346)">
<stop stop-color="#F3D8BF" stop-opacity="0.5"/>
<stop offset="0.58" stop-color="#A53BFF" stop-opacity="0.01"/>
<stop offset="1" stop-color="#7BF3FF"/>
</radialGradient>
</defs>
</svg>
